<svg width="64" height="13" viewBox="0 0 64 13" fill="none" xmlns="http://www.w3.org/2000/svg">
<path fill-rule="evenodd" clip-rule="evenodd" d="M10.2487 3.34209C10.2487 4.94129 8.95147 6.23773 7.35121 6.23773C5.75088 6.23773 4.45365 4.94129 4.45365 3.34209C4.45365 1.74322 5.75088 0.446777 7.35121 0.446777C8.95147 0.446777 10.2487 1.74322 10.2487 3.34209ZM3.58713 6.96166C1.98687 6.96166 0.689575 8.25772 0.689575 9.85691C0.689575 11.456 1.98687 12.7523 3.58713 12.7523C5.18746 12.7523 6.48482 11.456 6.48482 9.85691C6.48482 8.25772 5.18746 6.96166 3.58713 6.96166ZM11.1152 6.9614C9.51495 6.9614 8.21766 8.25772 8.21766 9.85691C8.21766 11.456 9.51495 12.7523 11.1152 12.7523C12.7155 12.7523 14.0128 11.456 14.0128 9.85691C14.0128 8.25772 12.7155 6.9614 11.1152 6.9614Z" fill="#A1A89D"/>
<path fill-rule="evenodd" clip-rule="evenodd" d="M24.2076 9.82392C24.2454 10.2535 24.5892 10.8002 25.1849 10.8002H25.5334C25.6685 10.8002 25.7793 10.6895 25.7793 10.5544V2.89494H25.7778C25.7707 2.7659 25.664 2.66255 25.5334 2.66255H24.4535C24.3229 2.66255 24.2162 2.7659 24.2089 2.89494H24.2076V3.51732C23.5459 2.7023 22.5027 2.36401 21.4565 2.36401C19.0786 2.36401 17.1509 4.29174 17.1509 6.66986C17.1509 9.04812 19.0786 10.9759 21.4565 10.9759V10.9761C22.5027 10.9761 23.6428 10.5702 24.2075 9.82293L24.2076 9.82392ZM21.4608 9.4689C19.9484 9.4689 18.7223 8.21584 18.7223 6.66986C18.7223 5.12415 19.9484 3.87103 21.4608 3.87103C22.9731 3.87103 24.199 5.12415 24.199 6.66986C24.199 8.21584 22.9731 9.4689 21.4608 9.4689Z" fill="#A1A89D"/>
<path fill-rule="evenodd" clip-rule="evenodd" d="M41.8031 9.82343C41.8409 10.253 42.1847 10.7997 42.7804 10.7997H43.1289C43.264 10.7997 43.3746 10.689 43.3746 10.5539V2.89445H43.3732C43.3662 2.76541 43.2594 2.66207 43.1289 2.66207H42.0489C41.9183 2.66207 41.8116 2.76541 41.8043 2.89445H41.8031V3.51683C41.1413 2.70181 40.0981 2.36353 39.0519 2.36353C36.674 2.36353 34.7463 4.29125 34.7463 6.66938C34.7463 9.04763 36.674 10.9754 39.0519 10.9754V10.9756C40.0981 10.9756 41.2383 10.5697 41.803 9.82245L41.8031 9.82343ZM39.0561 9.46841C37.5439 9.46841 36.3177 8.21535 36.3177 6.66938C36.3177 5.12366 37.5439 3.87054 39.0561 3.87054C40.5685 3.87054 41.7944 5.12366 41.7944 6.66938C41.7944 8.21535 40.5685 9.46841 39.0561 9.46841Z" fill="#A1A89D"/>
<path fill-rule="evenodd" clip-rule="evenodd" d="M61.4726 9.82343C61.5104 10.253 61.8542 10.7997 62.4499 10.7997H62.7984C62.9336 10.7997 63.0444 10.689 63.0444 10.5539V2.89445H63.0428C63.0357 2.76541 62.929 2.66207 62.7984 2.66207H61.7185C61.5879 2.66207 61.4812 2.76541 61.474 2.89445H61.4726V3.51683C60.811 2.70181 59.7678 2.36353 58.7216 2.36353C56.3435 2.36353 54.4159 4.29125 54.4159 6.66938C54.4159 9.04763 56.3435 10.9754 58.7216 10.9754V10.9756C59.7678 10.9756 60.9078 10.5697 61.4725 9.82245L61.4726 9.82343ZM58.7258 9.46841C57.2134 9.46841 55.9873 8.21535 55.9873 6.66938C55.9873 5.12366 57.2134 3.87054 58.7258 3.87054C60.2381 3.87054 61.4641 5.12366 61.4641 6.66938C61.4641 8.21535 60.2381 9.46841 58.7258 9.46841Z" fill="#A1A89D"/>
<path fill-rule="evenodd" clip-rule="evenodd" d="M53.0499 10.0874L53.0494 6.12396H53.0495C53.0495 3.88978 51.64 2.38257 49.3925 2.38257C48.3196 2.38257 47.4401 3.00298 47.1295 3.53594C47.0623 3.11921 46.8411 2.68117 46.155 2.68117H45.8053C45.67 2.68117 45.5596 2.79191 45.5596 2.92703V9.84319V9.84424V10.5872H45.5609C45.568 10.716 45.6748 10.8195 45.8054 10.8195H46.8854C46.9019 10.8195 46.9181 10.8175 46.9338 10.8144C46.9409 10.8131 46.9476 10.8103 46.9545 10.8083C46.9626 10.8058 46.9709 10.8039 46.9786 10.8008C46.9882 10.7968 46.9969 10.7914 47.0059 10.7865C47.0102 10.7838 47.0148 10.7819 47.0191 10.7791C47.0298 10.7721 47.0397 10.7638 47.0493 10.7552C47.0508 10.7536 47.0527 10.7526 47.0543 10.7512C47.065 10.7408 47.0748 10.7293 47.0835 10.7174L47.0836 10.7172C47.1106 10.6801 47.127 10.6354 47.1297 10.5872H47.1311V6.06251C47.1311 4.8626 48.1039 3.88978 49.3039 3.88978C50.5038 3.88978 51.4767 4.8626 51.4767 6.06251L51.4776 9.8445L51.4779 9.84319C51.4779 9.84652 51.4784 9.84999 51.4784 9.85358V10.5872H51.4799C51.487 10.716 51.5937 10.8195 51.7243 10.8195H52.8043C52.8209 10.8195 52.8371 10.8175 52.8527 10.8144C52.8591 10.8133 52.865 10.8107 52.8712 10.809C52.8801 10.8064 52.8892 10.8042 52.8977 10.8008C52.9065 10.7971 52.9145 10.792 52.9229 10.7873C52.928 10.7844 52.9333 10.7823 52.9382 10.7791C52.9482 10.7725 52.9573 10.7646 52.9663 10.7568C52.9686 10.7547 52.9711 10.7531 52.9733 10.751C52.9835 10.7411 52.9926 10.7304 53.001 10.7193C53.0016 10.7184 53.0022 10.7178 53.0029 10.7169C53.0295 10.6801 53.0458 10.6357 53.0486 10.5878C53.0486 10.5875 53.0487 10.5872 53.0487 10.5872H53.0501V10.0875L53.0499 10.0874Z" fill="#A1A89D"/>
<path fill-rule="evenodd" clip-rule="evenodd" d="M28.3588 8.72654C29.0798 9.22602 29.8667 9.46861 30.623 9.46861C31.3435 9.46861 32.0883 9.09509 32.0883 8.44499C32.0883 7.57702 30.4653 7.44197 29.4456 7.09539C28.4257 6.7488 27.5472 6.03236 27.5472 4.87212C27.5472 3.09677 29.1291 2.36353 30.6055 2.36353C31.5409 2.36353 32.5061 2.672 33.1319 3.1139C33.3474 3.27719 33.2161 3.46467 33.2161 3.46467L32.6188 4.31779C32.5517 4.41389 32.4343 4.49691 32.2658 4.3929C32.0973 4.28897 31.5062 3.87061 30.6055 3.87061C29.7047 3.87061 29.1621 4.28661 29.1621 4.80224C29.1621 5.42057 29.8673 5.61504 30.6934 5.82579C32.1328 6.21382 33.7031 6.68023 33.7031 8.44499C33.7031 10.0092 32.24 10.9759 30.623 10.9759C29.3976 10.9759 28.3543 10.6266 27.4793 9.98443C27.297 9.80199 27.4244 9.63262 27.4244 9.63262L28.0187 8.7838C28.1396 8.62508 28.2921 8.68045 28.3588 8.72654Z" fill="#A1A89D"/>
</svg>
