<svg width="62" height="11" viewBox="0 0 62 11" fill="none" xmlns="http://www.w3.org/2000/svg">
<path d="M6.09176 5.73619C6.57962 5.77522 6.98942 5.97036 7.34068 6.34113C7.69193 6.7119 7.86756 7.21927 7.86756 7.86324C7.86756 8.64381 7.61388 9.28778 7.08699 9.75613C6.56011 10.2245 5.81856 10.4586 4.82334 10.4586H0.0228271V1.20888H4.80382C5.64294 1.20888 6.32593 1.44305 6.8333 1.89188C7.34068 2.36022 7.59436 2.96516 7.59436 3.72622C7.59436 4.31165 7.43825 4.76047 7.1065 5.11173C6.77476 5.46299 6.44302 5.63862 6.07225 5.67764L6.09176 5.73619ZM2.306 5.03367H4.29645C4.62819 5.03367 4.90139 4.9361 5.11605 4.74096C5.31119 4.54582 5.42828 4.31165 5.42828 3.9799C5.42828 3.68719 5.33071 3.47253 5.13556 3.2969C4.94042 3.12128 4.68674 3.04322 4.39402 3.04322H2.306V5.03367V5.03367ZM4.41354 8.6243C4.76479 8.6243 5.05751 8.52673 5.25265 8.3511C5.44779 8.17547 5.54536 7.92179 5.54536 7.59004C5.54536 7.27781 5.44779 7.04364 5.23314 6.86801C5.03799 6.69239 4.76479 6.59482 4.45256 6.59482H2.306V8.6243H4.41354ZM15.7708 10.4586H13.5657V9.79515C13.0193 10.3806 12.2973 10.6733 11.4387 10.6733C10.6191 10.6733 9.9751 10.4001 9.48725 9.87321C8.99939 9.34633 8.7457 8.64381 8.7457 7.78519V3.53108H10.9313V7.31684C10.9313 7.72664 11.0484 8.05839 11.263 8.31207C11.4777 8.56576 11.7704 8.68284 12.1217 8.68284C12.5705 8.68284 12.9218 8.52673 13.1754 8.2145C13.4291 7.90227 13.5462 7.41441 13.5462 6.75093V3.53108H15.7513L15.7708 10.4586V10.4586ZM22.5813 10.4586H16.727V10.0488L19.4785 5.28736H16.8051V3.53108H22.5423V3.94088L19.7908 8.70236H22.5618V10.4586H22.5813ZM29.3723 10.4586H23.5375V10.0488L26.2695 5.28736H23.5961V3.53108H29.3333V3.94088L26.5817 8.70236H29.3528L29.3723 10.4586ZM32.6507 5.17027H36.6511V7.16073H32.6507V10.4782H30.3675V1.20888H37.0024V3.19933H32.6507V5.17027ZM52.8284 7.57053H47.7547C47.8913 8.42916 48.5353 8.91701 49.4915 8.91701C50.2525 8.91701 51.0136 8.6243 51.5795 8.17547L52.4186 9.63904C51.6381 10.3025 50.6428 10.6733 49.4915 10.6733C47.1693 10.6733 45.5886 9.26827 45.5886 7.00461C45.5886 5.93133 45.9399 5.05319 46.6424 4.37019C47.3449 3.68719 48.2231 3.33593 49.2573 3.33593C50.2525 3.33593 51.0917 3.66768 51.7747 4.35067C52.4577 5.03367 52.8089 5.91182 52.8284 7.02413V7.57053V7.57053ZM48.3597 5.40444C48.0865 5.59959 47.8913 5.87279 47.7937 6.20453H50.6428C50.5453 5.85327 50.3696 5.58007 50.1159 5.38493C49.8623 5.2093 49.5695 5.11173 49.2573 5.11173C48.9256 5.11173 48.6329 5.2093 48.3597 5.40444V5.40444ZM44.7495 7.57053H39.6758C39.8124 8.42916 40.4564 8.91701 41.4126 8.91701C42.1736 8.91701 42.9347 8.6243 43.5006 8.17547L44.3397 9.63904C43.5592 10.3025 42.5639 10.6733 41.4126 10.6733C39.0904 10.6733 37.5097 9.26827 37.5097 7.00461C37.5097 5.93133 37.861 5.05319 38.5635 4.37019C39.266 3.68719 40.1442 3.33593 41.1784 3.33593C42.1736 3.33593 43.0128 3.66768 43.6958 4.35067C44.3788 5.03367 44.73 5.91182 44.7495 7.02413V7.57053V7.57053ZM40.2808 5.40444C40.0076 5.59959 39.8124 5.87279 39.7148 6.20453H42.5639C42.4664 5.85327 42.2907 5.58007 42.037 5.38493C41.7834 5.2093 41.4906 5.11173 41.1784 5.11173C40.8467 5.11173 40.554 5.2093 40.2808 5.40444V5.40444ZM61.3562 10.4586H59.151V9.91224C58.5851 10.4196 57.8826 10.6733 57.0045 10.6733C56.0678 10.6733 55.2677 10.322 54.6042 9.63904C53.9407 8.95604 53.609 8.0779 53.609 7.00461C53.609 5.93133 53.9407 5.05319 54.6042 4.37019C55.2677 3.68719 56.0678 3.33593 57.0045 3.33593C57.8826 3.33593 58.6046 3.58962 59.151 4.09699V0.525879H61.3562V10.4586ZM58.6632 8.29256C58.9949 7.96081 59.1706 7.5315 59.1706 7.00461C59.1706 6.49724 58.9949 6.06793 58.6632 5.71667C58.3314 5.38493 57.9216 5.2093 57.4728 5.2093C56.985 5.2093 56.5947 5.38493 56.2824 5.71667C55.9702 6.04842 55.8141 6.47773 55.8141 7.00461C55.8141 7.5315 55.9702 7.98033 56.2824 8.31207C56.5947 8.64381 56.985 8.79993 57.4728 8.79993C57.9216 8.79993 58.3119 8.6243 58.6632 8.29256Z" fill="#A1A89D"/>
</svg>
