<svg width="71" height="14" viewBox="0 0 71 14" fill="none" xmlns="http://www.w3.org/2000/svg">
<path d="M61.8837 0.0927734C61.6297 0.0927734 61.4241 0.298451 61.4241 0.552067V3.77334H69.9331L66.0581 0.0930706L61.8837 0.0927734Z" fill="#A1A89D"/>
<path d="M70.2452 4.74758C70.2452 4.49336 70.041 4.28857 69.7856 4.28857H66.5652V12.7979L70.2437 8.92117L70.2452 4.74758Z" fill="#A1A89D"/>
<path d="M65.5888 13.1063C65.8421 13.1063 66.0478 12.9003 66.0478 12.6461V9.42603H57.5385L61.414 13.1057L65.5888 13.1063Z" fill="#A1A89D"/>
<path d="M57.2274 8.45153C57.2274 8.70544 57.4331 8.9123 57.6876 8.9123H60.9074V0.402344L57.228 4.27793L57.2274 8.45153Z" fill="#A1A89D"/>
<path d="M18.225 1.64606V5.5758H12.7501V1.64606L10.7561 1.64429V11.5528H12.7501V7.29609H18.225V11.5528H20.2222V1.64606H18.225Z" fill="#A1A89D"/>
<path d="M44.7528 1.646V11.5504H53.501L52.393 9.80675H46.7525V7.29602H52.2143V5.61658H46.7525V3.34882H52.3835L53.469 1.646H44.7528Z" fill="#A1A89D"/>
<path d="M3.34401 1.6438C1.2698 1.6438 0.222168 2.90479 0.222168 4.7396V8.43822C0.222168 10.5616 1.57223 11.5529 3.33365 11.5529L9.58977 11.5524L8.42998 9.74123H3.72015C2.71958 9.74123 2.28367 9.37959 2.28367 8.25976V4.90414C2.28367 3.8216 2.65063 3.3993 3.74678 3.3993H8.47911L9.59272 1.6438H3.34401Z" fill="#A1A89D"/>
<path d="M36.0009 1.64153C34.8029 1.64153 33.5751 2.36154 33.5751 4.21352V4.68938C33.5751 6.62007 34.7564 7.35666 35.9384 7.36169H40.0872C40.518 7.36169 40.8681 7.43331 40.8681 8.16161L40.8675 9.00296C40.8566 9.65727 40.5302 9.80702 40.0723 9.80702H34.6144L33.4963 11.5507H40.2008C41.8175 11.5507 42.9151 10.7463 42.9151 8.88843V8.2057C42.9151 6.40937 41.8953 5.56062 40.3141 5.56062H36.3527C35.9135 5.56062 35.6076 5.44076 35.6076 4.79029V4.1052C35.6076 3.55121 35.8174 3.34908 36.329 3.34908L41.5269 3.34701L42.6133 1.63916L36.0009 1.64153Z" fill="#A1A89D"/>
<path d="M26.0155 1.64624L21.3175 11.5524H23.5379L24.453 9.50662H29.5582L30.4702 11.5524H32.7004L27.9915 1.64624H26.0155ZM27.0007 3.703L28.8059 7.82037H25.207L27.0007 3.703Z" fill="#A1A89D"/>
</svg>
