<svg width="51" height="17" viewBox="0 0 51 17" fill="none" xmlns="http://www.w3.org/2000/svg">
<path d="M21.9238 9.03231C21.9238 11.4045 20.068 13.1525 17.7906 13.1525C15.5131 13.1525 13.6573 11.4045 13.6573 9.03231C13.6573 6.64341 15.5131 4.91211 17.7906 4.91211C20.068 4.91211 21.9238 6.64341 21.9238 9.03231ZM20.1144 9.03231C20.1144 7.54993 19.0389 6.53567 17.7906 6.53567C16.5422 6.53567 15.4667 7.54993 15.4667 9.03231C15.4667 10.4998 16.5422 11.529 17.7906 11.529C19.0389 11.529 20.1144 10.498 20.1144 9.03231Z" fill="#A1A89D"/>
<path d="M30.8404 9.03231C30.8404 11.4045 28.9846 13.1525 26.7072 13.1525C24.4297 13.1525 22.574 11.4045 22.574 9.03231C22.574 6.64527 24.4297 4.91211 26.7072 4.91211C28.9846 4.91211 30.8404 6.64341 30.8404 9.03231ZM29.0311 9.03231C29.0311 7.54993 27.9555 6.53567 26.7072 6.53567C25.4589 6.53567 24.3833 7.54993 24.3833 9.03231C24.3833 10.4998 25.4589 11.529 26.7072 11.529C27.9555 11.529 29.0311 10.498 29.0311 9.03231Z" fill="#A1A89D"/>
<path d="M39.3854 5.16103V12.5581C39.3854 15.6009 37.591 16.8436 35.4696 16.8436C33.4726 16.8436 32.2707 15.508 31.8175 14.4157L33.3927 13.76C33.6732 14.4306 34.3606 15.2219 35.4677 15.2219C36.8256 15.2219 37.6671 14.3841 37.6671 12.807V12.2144H37.604C37.199 12.7141 36.4188 13.1507 35.4343 13.1507C33.3742 13.1507 31.4868 11.3562 31.4868 9.04718C31.4868 6.72143 33.3742 4.91211 35.4343 4.91211C36.4169 4.91211 37.1971 5.34865 37.604 5.83349H37.6671V5.16289H39.3854V5.16103ZM37.7953 9.04718C37.7953 7.59637 36.8275 6.53567 35.5959 6.53567C34.3476 6.53567 33.3017 7.59637 33.3017 9.04718C33.3017 10.4831 34.3476 11.529 35.5959 11.529C36.8275 11.529 37.7953 10.4831 37.7953 9.04718Z" fill="#A1A89D"/>
<path d="M42.2184 0.825439V12.9H40.4536V0.825439H42.2184Z" fill="#A1A89D"/>
<path d="M49.096 10.3888L50.5004 11.325C50.0471 11.9956 48.9549 13.1511 47.0675 13.1511C44.7269 13.1511 42.9789 11.3417 42.9789 9.03085C42.9789 6.58065 44.7418 4.91064 46.865 4.91064C49.0031 4.91064 50.049 6.61223 50.3908 7.53175L50.5784 7.99987L45.0706 10.281C45.4922 11.1077 46.148 11.5294 47.0675 11.5294C47.9889 11.5294 48.6279 11.0761 49.096 10.3888ZM44.7733 8.90639L48.4552 7.37757C48.2527 6.86301 47.6434 6.50448 46.9263 6.50448C46.0068 6.50448 44.7269 7.31626 44.7733 8.90639V8.90639Z" fill="#A1A89D"/>
<path d="M6.97744 7.96057V6.21255H12.868C12.9256 6.5172 12.9553 6.87758 12.9553 7.26768C12.9553 8.57916 12.5968 10.2009 11.4413 11.3563C10.3174 12.5266 8.88151 13.1508 6.9793 13.1508C3.45353 13.1508 0.48877 10.2789 0.48877 6.75312C0.48877 3.22735 3.45353 0.355469 6.9793 0.355469C8.9298 0.355469 10.3193 1.12081 11.3633 2.11835L10.1298 3.35181C9.38121 2.64963 8.36695 2.10349 6.97744 2.10349C4.40278 2.10349 2.38912 4.17845 2.38912 6.75312C2.38912 9.32778 4.40278 11.4027 6.97744 11.4027C8.64745 11.4027 9.59855 10.7321 10.2078 10.1228C10.702 9.62872 11.0271 8.92282 11.1552 7.95872L6.97744 7.96057V7.96057Z" fill="#A1A89D"/>
</svg>
