<svg width="69" height="17" viewBox="0 0 69 17" fill="none" xmlns="http://www.w3.org/2000/svg">
<path d="M0.800537 3.83493C0.800537 3.83493 2.48935 10.7681 2.75888 11.8935C3.07346 13.207 3.64029 13.6904 5.27457 13.3644L6.32911 9.06584C6.59638 7.99812 6.77565 7.23691 6.94745 6.15076H6.97768C7.09839 7.24758 7.27029 8.00131 7.49023 9.06958C7.49023 9.06958 7.91951 11.021 8.13933 12.0459C8.35975 13.0705 8.97314 13.7163 10.5739 13.3647L13.0866 3.83566H11.0579L10.2001 7.95553C9.96946 9.15476 9.76018 10.0918 9.59882 11.1889H9.5702C9.42356 10.1027 9.23704 9.20282 9.00256 8.03442L8.10936 3.83566H5.99564L5.04023 7.92863C4.76955 9.17236 4.51639 10.1767 4.3554 11.2366H4.32625C4.16138 10.2384 3.94179 8.9762 3.704 7.77223C3.704 7.77223 3.13637 4.84474 2.93721 3.83566L0.800735 3.83593L0.800537 3.83493ZM20.14 3.83493V13.364H22.0715V11.3405V3.83447H20.14V3.83493ZM47.3432 3.83493V10.8647C47.3432 11.8339 47.5253 12.513 47.9148 12.9278C48.2551 13.2906 48.8156 13.5256 49.4873 13.5256C50.0583 13.5256 50.6202 13.4171 50.885 13.3183L50.8601 11.806C50.663 11.8546 50.4364 11.8935 50.1263 11.8935C49.4684 11.8935 49.2477 11.4713 49.2477 10.6011V7.91151H50.9299V6.08832H49.2477V3.83496H47.3431L47.3432 3.83493ZM15.8235 6.04397C14.6232 6.04397 13.6703 6.38163 13.1509 6.68234L13.531 7.98635C14.0063 7.68612 14.7632 7.43757 15.4799 7.43757C16.6664 7.43452 16.8604 8.10973 16.8604 8.54278V8.64519C14.275 8.6413 12.6419 9.53762 12.6419 11.3647C12.6419 12.4802 13.4732 13.5255 14.9188 13.5255C15.8087 13.5255 16.5529 13.17 16.9989 12.6003H17.0427C17.0427 12.6003 17.338 13.8375 18.9652 13.3644C18.8797 12.8494 18.852 12.3004 18.852 11.6391V9.0935C18.852 7.47103 18.1605 6.044 15.8235 6.044L15.8235 6.04397ZM27.3775 6.04397C26.1688 6.04397 25.6257 6.65763 25.2963 7.17827H25.2677V6.20557H23.4244V13.3645H25.3662V9.16607C25.3662 8.96925 25.3887 8.76112 25.4572 8.58006C25.6181 8.15736 26.0107 7.6629 26.6374 7.6629C27.4209 7.6629 27.7875 8.32653 27.7875 9.28428V13.3644H29.7272V9.1152C29.7272 8.92732 29.7529 8.70101 29.8081 8.53489C29.9676 8.05407 30.3907 7.66283 30.9733 7.66283C31.7676 7.66283 32.1488 8.31492 32.1488 9.44188V13.3644H34.0899V9.14805C34.0899 6.92441 32.9629 6.04401 31.6907 6.04401C31.1273 6.04401 30.6826 6.18554 30.2805 6.43284C29.9426 6.6406 29.64 6.93579 29.3756 7.32449H29.347C29.0393 6.55297 28.3175 6.04401 27.3772 6.04401L27.3775 6.04397ZM38.0403 6.04397C36.8402 6.04397 35.8875 6.38163 35.3677 6.68234L35.7483 7.98635C36.2232 7.68612 36.9805 7.43757 37.6968 7.43757C38.8825 7.43452 39.077 8.10973 39.077 8.54278V8.64519C36.4919 8.6413 34.8586 9.53762 34.8586 11.3647C34.8586 12.4802 35.6904 13.5255 37.1367 13.5255C38.0259 13.5255 38.7704 13.17 39.2156 12.6003H39.2595C39.2595 12.6003 39.5548 13.8375 41.1823 13.3644C41.0967 12.8494 41.0692 12.3004 41.0692 11.6391V9.0935C41.0692 7.47103 40.3775 6.044 38.0403 6.044L38.0403 6.04397ZM46.104 6.04397C45.3604 6.04397 44.5145 6.52483 44.1594 7.55564H44.1051V6.20548H42.3572V13.3644H44.3498V9.69856C44.3498 9.5008 44.3618 9.32838 44.393 9.17026C44.5404 8.40237 45.1266 7.91148 45.968 7.91148C46.199 7.91148 46.3643 7.93655 46.5432 7.96242V6.08825C46.3932 6.0579 46.2907 6.0439 46.1041 6.0439L46.104 6.04397ZM16.9227 9.91378V10.8069C16.9227 10.939 16.9113 11.0753 16.8747 11.1944C16.7253 11.6905 16.2124 12.1096 15.5713 12.1096C15.0367 12.1096 14.6121 11.8057 14.6121 11.1627C14.6121 10.1793 15.6927 9.9074 16.9228 9.91378H16.9227ZM39.1395 9.91378V10.8069C39.1395 10.939 39.1278 11.0753 39.0915 11.1944C38.9421 11.6905 38.4294 12.1096 37.7882 12.1096C37.2536 12.1096 36.8289 11.8057 36.8289 11.1627C36.8289 10.1793 37.9095 9.9074 39.1396 9.91378H39.1395Z" fill="#A1A89D"/>
<path d="M61.3725 0.388916C60.7489 0.388916 60.2533 0.737784 60.2533 1.16249L60.632 5.45855C60.6738 5.71738 60.9903 5.91703 61.3729 5.91703C61.7562 5.91652 62.0716 5.71705 62.1142 5.45855L62.4947 1.16249C62.4947 0.737821 61.9977 0.388952 61.3733 0.388952L61.3725 0.388916ZM55.2013 3.83501C54.8775 3.8427 54.5098 4.08825 54.2759 4.49459C53.963 5.03565 54.0185 5.6403 54.3845 5.85243L58.287 7.67319C58.5308 7.76404 58.8619 7.59059 59.0536 7.25942C59.0536 7.25938 59.0536 7.25928 59.0536 7.25924C59.2462 6.92644 59.2313 6.55225 59.0285 6.38627L55.5039 3.90952C55.4124 3.8564 55.3094 3.8325 55.2015 3.83506L55.2013 3.83501ZM67.5437 3.83501C67.4359 3.83244 67.3331 3.85634 67.2417 3.90946L63.7166 6.38621C63.515 6.55218 63.5001 6.92639 63.6917 7.25918L63.6919 7.25937C63.8844 7.59053 64.2144 7.76398 64.4582 7.67314L68.3624 5.85247C68.7299 5.64034 68.7826 5.03572 68.4719 4.49462C68.2369 4.08828 67.8686 3.84274 67.5449 3.83504L67.5437 3.83501ZM58.4328 9.50304C58.3823 9.50236 58.3333 9.51017 58.2875 9.52744L54.385 11.346C54.019 11.5591 53.9636 12.164 54.2764 12.7056C54.5883 13.2456 55.1381 13.5023 55.5042 13.2905L59.0291 10.8157C59.2319 10.6477 59.2468 10.2736 59.0541 9.94114L59.0557 9.94187C58.8999 9.67106 58.6515 9.50597 58.4328 9.50298L58.4328 9.50304ZM64.314 9.50304C64.0955 9.50602 63.8476 9.67112 63.6914 9.94193L63.6928 9.9412C63.501 10.2737 63.5159 10.6478 63.7175 10.8158L67.2426 13.2906C67.608 13.5024 68.1583 13.2457 68.4716 12.7057C68.7824 12.164 68.7297 11.5591 68.3621 11.3461L64.4591 9.5275C64.4133 9.51023 64.3645 9.50241 64.314 9.5031L64.314 9.50304ZM61.372 11.2835C60.99 11.284 60.6743 11.4828 60.6325 11.7409L60.2538 16.0368C60.2538 16.4622 60.7495 16.8104 61.373 16.8104C61.9978 16.8104 62.4943 16.4622 62.4943 16.0368L62.1147 11.7409C62.0721 11.4828 61.7567 11.284 61.3734 11.2835H61.3719H61.372Z" fill="#A1A89D"/>
</svg>
